<?xml version="1.0" standalone="no"?>
<!DOCTYPE svg PUBLIC "-//W3C//DTD SVG 20010904//EN"
 "http://www.w3.org/TR/2001/REC-SVG-20010904/DTD/svg10.dtd">
<svg version="1.0" xmlns="http://www.w3.org/2000/svg"
 width="320.000000pt" height="320.000000pt" viewBox="0 0 320.000000 320.000000"
 preserveAspectRatio="xMidYMid meet">

<g transform="translate(0.000000,320.000000) scale(0.100000,-0.100000)"
fill="#000000" stroke="none">
<path d="M1600 2825 c0 -24 -2 -25 -75 -25 -73 0 -75 -1 -75 -25 0 -20 -5 -25
-25 -25 -20 0 -25 -5 -25 -25 0 -20 -5 -25 -25 -25 -23 0 -25 -3 -25 -50 0
-47 -2 -50 -25 -50 -20 0 -25 -5 -25 -25 0 -20 -5 -25 -25 -25 l-25 0 0 -150
0 -150 -25 0 c-20 0 -25 -5 -25 -25 0 -23 -3 -25 -50 -25 -47 0 -50 2 -50 25
0 20 -5 25 -25 25 -20 0 -25 5 -25 25 0 20 -5 25 -25 25 -20 0 -25 -5 -25 -25
0 -20 5 -25 25 -25 20 0 25 -5 25 -25 0 -20 -5 -25 -25 -25 -20 0 -25 -5 -25
-25 0 -23 3 -25 50 -25 47 0 50 -2 50 -25 0 -24 2 -25 75 -25 73 0 75 1 75 25
0 20 5 25 25 25 20 0 25 5 25 25 0 23 3 25 50 25 47 0 50 -2 50 -25 0 -20 5
-25 25 -25 20 0 25 -5 25 -25 0 -23 3 -25 50 -25 47 0 50 -2 50 -25 0 -23 3
-25 50 -25 47 0 50 -2 50 -25 0 -23 3 -25 50 -25 l50 0 0 -50 c0 -47 2 -50 25
-50 20 0 25 -5 25 -25 0 -20 5 -25 25 -25 20 0 25 -5 25 -25 0 -20 -5 -25 -25
-25 -20 0 -25 -5 -25 -25 0 -20 -5 -25 -25 -25 -23 0 -25 -3 -25 -50 0 -47 -2
-50 -25 -50 -23 0 -25 -3 -25 -50 l0 -50 -75 0 -75 0 0 150 0 150 25 0 c20 0
25 -5 25 -25 0 -20 5 -25 25 -25 23 0 25 3 25 50 0 47 -2 50 -25 50 -20 0 -25
5 -25 25 0 23 -3 25 -50 25 -47 0 -50 -2 -50 -25 0 -23 -3 -25 -50 -25 -47 0
-50 -2 -50 -25 0 -20 -5 -25 -25 -25 -20 0 -25 -5 -25 -25 0 -20 -5 -25 -25
-25 -20 0 -25 -5 -25 -25 0 -20 -5 -25 -25 -25 -20 0 -25 -5 -25 -25 0 -20 -5
-25 -25 -25 -20 0 -25 -5 -25 -25 0 -20 -5 -25 -25 -25 -20 0 -25 -5 -25 -25
0 -20 -5 -25 -25 -25 -20 0 -25 -5 -25 -25 0 -20 -5 -25 -25 -25 -20 0 -25 -5
-25 -25 0 -20 -5 -25 -25 -25 -24 0 -25 -2 -25 -75 0 -73 -1 -75 -25 -75 l-25
0 0 -225 0 -225 25 0 c23 0 25 -3 25 -50 l0 -50 -75 0 c-73 0 -75 -1 -75 -25
0 -20 -5 -25 -25 -25 -20 0 -25 5 -25 25 0 23 -3 25 -50 25 -47 0 -50 2 -50
25 0 20 -5 25 -25 25 -20 0 -25 5 -25 25 0 20 5 25 25 25 l25 0 0 200 0 200
-25 0 c-23 0 -25 3 -25 50 0 47 -2 50 -25 50 -20 0 -25 5 -25 25 0 20 -5 25
-25 25 -20 0 -25 5 -25 25 0 20 -5 25 -25 25 -20 0 -25 5 -25 25 l0 25 -125 0
-125 0 0 -25 c0 -20 -5 -25 -25 -25 -24 0 -25 -2 -25 -75 0 -73 1 -75 25 -75
20 0 25 -5 25 -25 0 -20 5 -25 25 -25 20 0 25 5 25 25 0 20 -5 25 -25 25 -23
0 -25 3 -25 50 l0 50 75 0 c73 0 75 -1 75 -25 0 -20 5 -25 25 -25 23 0 25 -3
25 -50 0 -47 2 -50 25 -50 24 0 25 -2 25 -75 0 -73 -1 -75 -25 -75 l-25 0 0
-100 0 -100 -25 0 -25 0 0 -150 0 -150 25 0 c20 0 25 -5 25 -25 0 -20 5 -25
25 -25 20 0 25 -5 25 -25 0 -20 5 -25 25 -25 20 0 25 -5 25 -25 0 -24 2 -25
75 -25 73 0 75 -1 75 -25 l0 -25 100 0 100 0 0 -25 0 -25 200 0 200 0 0 25 c0
20 5 25 25 25 20 0 25 -5 25 -25 0 -20 5 -25 25 -25 20 0 25 -5 25 -25 0 -23
3 -25 50 -25 47 0 50 2 50 25 0 23 3 25 50 25 47 0 50 -2 50 -25 0 -20 5 -25
25 -25 20 0 25 -5 25 -25 0 -23 3 -25 50 -25 47 0 50 2 50 25 0 20 5 25 25 25
20 0 25 5 25 25 0 20 5 25 25 25 23 0 25 3 25 50 0 47 2 50 25 50 20 0 25 5
25 25 0 23 3 25 50 25 l50 0 0 -125 0 -125 50 0 c47 0 50 2 50 25 0 20 5 25
25 25 20 0 25 -5 25 -25 0 -23 3 -25 50 -25 47 0 50 2 50 25 0 23 3 25 50 25
47 0 50 2 50 25 0 23 3 25 50 25 47 0 50 2 50 25 0 24 2 25 75 25 73 0 75 1
75 25 0 20 5 25 25 25 23 0 25 3 25 50 0 47 2 50 25 50 20 0 25 5 25 25 0 20
5 25 25 25 20 0 25 5 25 25 0 20 5 25 25 25 20 0 25 5 25 25 0 20 5 25 25 25
20 0 25 5 25 25 0 20 5 25 25 25 l25 0 0 -100 0 -100 -25 0 c-20 0 -25 -5 -25
-25 0 -20 5 -25 25 -25 20 0 25 5 25 25 0 20 5 25 25 25 l25 0 0 100 0 100 25
0 c24 0 25 2 25 75 0 73 1 75 25 75 l25 0 0 275 0 275 -25 0 c-23 0 -25 3 -25
50 0 47 -2 50 -25 50 -20 0 -25 5 -25 25 0 20 -5 25 -25 25 -20 0 -25 5 -25
25 0 20 -5 25 -25 25 -23 0 -25 3 -25 50 0 47 -2 50 -25 50 -20 0 -25 5 -25
25 0 20 -5 25 -25 25 -20 0 -25 5 -25 25 l0 25 -100 0 -100 0 0 75 c0 73 -1
75 -25 75 -23 0 -25 3 -25 50 l0 50 100 0 100 0 0 25 c0 20 5 25 25 25 20 0
25 5 25 25 0 20 -5 25 -25 25 -20 0 -25 5 -25 25 0 20 5 25 25 25 23 0 25 3
25 50 0 47 -2 50 -25 50 -20 0 -25 5 -25 25 0 20 -5 25 -25 25 -20 0 -25 5
-25 25 0 20 -5 25 -25 25 -20 0 -25 5 -25 25 0 23 -3 25 -50 25 -47 0 -50 2
-50 25 0 24 -2 25 -75 25 -73 0 -75 1 -75 25 0 20 -5 25 -25 25 -20 0 -25 5
-25 25 0 20 -5 25 -25 25 -20 0 -25 5 -25 25 0 23 -3 25 -50 25 -47 0 -50 2
-50 25 l0 25 -200 0 -200 0 0 -25 c0 -20 -5 -25 -25 -25 -23 0 -25 3 -25 50
l0 50 -50 0 c-47 0 -50 -2 -50 -25z m50 -75 l0 -50 50 0 c47 0 50 2 50 25 l0
25 200 0 200 0 0 -25 c0 -23 3 -25 50 -25 47 0 50 -2 50 -25 0 -20 5 -25 25
-25 24 0 25 -2 25 -75 0 -73 1 -75 25 -75 20 0 25 5 25 25 0 24 2 25 75 25 73
0 75 -1 75 -25 0 -23 3 -25 50 -25 47 0 50 -2 50 -25 0 -20 5 -25 25 -25 20 0
25 -5 25 -25 0 -20 5 -25 25 -25 20 0 25 -5 25 -25 0 -23 -3 -25 -50 -25 -47
0 -50 -2 -50 -25 0 -20 5 -25 25 -25 20 0 25 -5 25 -25 0 -20 5 -25 25 -25 20
0 25 -5 25 -25 0 -24 -2 -25 -75 -25 -73 0 -75 1 -75 25 0 23 -3 25 -50 25
-47 0 -50 2 -50 25 0 24 -2 25 -75 25 -73 0 -75 -1 -75 -25 0 -20 5 -25 25
-25 20 0 25 -5 25 -25 0 -20 5 -25 25 -25 20 0 25 -5 25 -25 0 -20 5 -25 25
-25 23 0 25 -3 25 -50 0 -47 2 -50 25 -50 24 0 25 -2 25 -75 0 -73 1 -75 25
-75 20 0 25 -5 25 -25 0 -20 -5 -25 -25 -25 -23 0 -25 -3 -25 -50 0 -47 2 -50
25 -50 20 0 25 5 25 25 0 20 5 25 25 25 20 0 25 5 25 25 0 20 5 25 25 25 24 0
25 -2 25 -75 0 -73 -1 -75 -25 -75 -20 0 -25 -5 -25 -25 0 -20 -5 -25 -25 -25
l-25 0 0 -100 0 -100 -25 0 c-20 0 -25 -5 -25 -25 0 -20 -5 -25 -25 -25 -20 0
-25 -5 -25 -25 0 -20 -5 -25 -25 -25 -20 0 -25 -5 -25 -25 0 -20 -5 -25 -25
-25 -20 0 -25 -5 -25 -25 0 -23 -3 -25 -50 -25 l-50 0 0 50 c0 47 -2 50 -25
50 -23 0 -25 3 -25 50 0 47 -2 50 -25 50 -20 0 -25 5 -25 25 0 23 -3 25 -50
25 -47 0 -50 -2 -50 -25 0 -20 5 -25 25 -25 24 0 25 -2 25 -75 0 -73 1 -75 25
-75 l25 0 0 -125 0 -125 25 0 25 0 0 -200 0 -200 25 0 25 0 0 -100 0 -100 25
0 c20 0 25 5 25 25 0 20 5 25 25 25 20 0 25 -5 25 -25 0 -20 -5 -25 -25 -25
-20 0 -25 -5 -25 -25 0 -20 -5 -25 -25 -25 -20 0 -25 5 -25 25 0 20 -5 25 -25
25 -23 0 -25 -3 -25 -50 0 -47 -2 -50 -25 -50 -24 0 -25 2 -25 75 0 73 -1 75
-25 75 -24 0 -25 2 -25 75 0 73 -1 75 -25 75 -23 0 -25 3 -25 50 0 47 -2 50
-25 50 -20 0 -25 5 -25 25 0 20 5 25 25 25 20 0 25 5 25 25 0 20 5 25 25 25
20 0 25 5 25 25 0 23 -3 25 -50 25 -47 0 -50 -2 -50 -25 0 -20 -5 -25 -25 -25
-20 0 -25 5 -25 25 0 20 -5 25 -25 25 -23 0 -25 -3 -25 -50 0 -47 -2 -50 -25
-50 -23 0 -25 -3 -25 -50 0 -47 -2 -50 -25 -50 -23 0 -25 -3 -25 -50 0 -47 -2
-50 -25 -50 -23 0 -25 -3 -25 -50 0 -47 -2 -50 -25 -50 -20 0 -25 -5 -25 -25
0 -20 -5 -25 -25 -25 -20 0 -25 5 -25 25 0 20 -5 25 -25 25 -20 0 -25 -5 -25
-25 0 -20 -5 -25 -25 -25 -20 0 -25 5 -25 25 0 23 -3 25 -50 25 l-50 0 0 50
c0 47 -2 50 -25 50 -24 0 -25 2 -25 75 0 73 -1 75 -25 75 -24 0 -25 2 -25 75
0 73 1 75 25 75 l25 0 0 100 0 100 25 0 c24 0 25 2 25 75 l0 75 50 0 c47 0 50
2 50 25 0 20 -5 25 -25 25 -20 0 -25 5 -25 25 0 20 5 25 25 25 23 0 25 3 25
50 0 47 2 50 25 50 20 0 25 5 25 25 0 20 5 25 25 25 20 0 25 -5 25 -25 0 -20
5 -25 25 -25 l25 0 0 -150 0 -150 25 0 25 0 0 250 0 250 25 0 c23 0 25 3 25
50 l0 50 50 0 50 0 0 50 c0 47 2 50 25 50 20 0 25 -5 25 -25 0 -23 3 -25 50
-25 47 0 50 -2 50 -25 0 -23 3 -25 50 -25 l50 0 0 50 0 50 50 0 c47 0 50 -2
50 -25 0 -23 3 -25 50 -25 l50 0 0 50 0 50 50 0 50 0 0 75 c0 73 -1 75 -25 75
-20 0 -25 -5 -25 -25 0 -23 -3 -25 -50 -25 -47 0 -50 2 -50 25 0 23 -3 25 -50
25 l-50 0 0 -50 c0 -47 2 -50 25 -50 20 0 25 -5 25 -25 0 -23 -3 -25 -50 -25
-47 0 -50 2 -50 25 0 23 -3 25 -50 25 l-50 0 0 -50 c0 -47 -2 -50 -25 -50 -20
0 -25 5 -25 25 0 20 -5 25 -25 25 -23 0 -25 3 -25 50 0 47 -2 50 -25 50 -24 0
-25 2 -25 75 0 73 -1 75 -25 75 -20 0 -25 5 -25 25 0 20 -5 25 -25 25 -20 0
-25 -5 -25 -25 0 -23 -3 -25 -50 -25 -47 0 -50 2 -50 25 0 24 -2 25 -75 25
-73 0 -75 1 -75 25 0 20 -5 25 -25 25 -20 0 -25 5 -25 25 l0 25 -100 0 -100 0
0 125 0 125 25 0 c20 0 25 5 25 25 0 20 5 25 25 25 23 0 25 3 25 50 0 47 2 50
25 50 20 0 25 5 25 25 0 20 5 25 25 25 24 0 25 -2 25 -75 0 -73 1 -75 25 -75
24 0 25 2 25 75 0 73 1 75 25 75 20 0 25 5 25 25 0 20 5 25 25 25 23 0 25 -3
25 -50z m-250 -1000 c0 -47 -2 -50 -25 -50 -23 0 -25 -3 -25 -50 0 -47 -2 -50
-25 -50 -24 0 -25 -2 -25 -75 0 -73 -1 -75 -25 -75 -24 0 -25 -2 -25 -75 0
-73 -1 -75 -25 -75 l-25 0 0 -200 0 -200 -50 0 c-47 0 -50 -2 -50 -25 0 -23 3
-25 50 -25 47 0 50 -2 50 -25 0 -20 5 -25 25 -25 24 0 25 -2 25 -75 0 -73 -1
-75 -25 -75 -20 0 -25 -5 -25 -25 0 -23 -3 -25 -50 -25 l-50 0 0 75 0 75 50 0
c47 0 50 2 50 25 0 23 -3 25 -50 25 -47 0 -50 2 -50 25 0 20 -5 25 -25 25 -20
0 -25 5 -25 25 0 20 -5 25 -25 25 l-25 0 0 225 0 225 25 0 c24 0 25 2 25 75 0
73 1 75 25 75 20 0 25 5 25 25 0 20 5 25 25 25 20 0 25 5 25 25 0 20 5 25 25
25 20 0 25 5 25 25 0 20 5 25 25 25 20 0 25 5 25 25 0 20 5 25 25 25 20 0 25
5 25 25 0 20 5 25 25 25 20 0 25 5 25 25 0 20 5 25 25 25 23 0 25 -3 25 -50z
m1400 0 c0 -47 2 -50 25 -50 20 0 25 -5 25 -25 0 -20 5 -25 25 -25 20 0 25 -5
25 -25 0 -20 5 -25 25 -25 23 0 25 -3 25 -50 0 -47 2 -50 25 -50 l25 0 0 -200
0 -200 -25 0 c-20 0 -25 -5 -25 -25 0 -20 -5 -25 -25 -25 -20 0 -25 -5 -25
-25 0 -20 -5 -25 -25 -25 -23 0 -25 3 -25 50 0 47 2 50 25 50 l25 0 0 100 0
100 -25 0 -25 0 0 125 0 125 -25 0 c-24 0 -25 2 -25 75 0 73 -1 75 -25 75 -23
0 -25 3 -25 50 0 47 2 50 25 50 23 0 25 -3 25 -50z m-1350 -300 l0 -150 -25 0
c-20 0 -25 -5 -25 -25 0 -20 -5 -25 -25 -25 -23 0 -25 -3 -25 -50 0 -47 -2
-50 -25 -50 -24 0 -25 2 -25 75 0 73 1 75 25 75 24 0 25 2 25 75 0 73 1 75 25
75 24 0 25 2 25 75 0 73 1 75 25 75 l25 0 0 -150z m-950 25 c0 -20 5 -25 25
-25 20 0 25 -5 25 -25 0 -20 5 -25 25 -25 23 0 25 -3 25 -50 0 -47 2 -50 25
-50 l25 0 0 -200 0 -200 -25 0 c-24 0 -25 -2 -25 -75 0 -73 1 -75 25 -75 20 0
25 5 25 25 0 20 5 25 25 25 20 0 25 -5 25 -25 0 -23 3 -25 50 -25 47 0 50 -2
50 -25 0 -20 5 -25 25 -25 20 0 25 5 25 25 0 24 2 25 75 25 l75 0 0 -50 c0
-47 2 -50 25 -50 23 0 25 -3 25 -50 l0 -50 -125 0 -125 0 0 25 c0 24 -2 25
-75 25 -73 0 -75 1 -75 25 0 23 -3 25 -50 25 -47 0 -50 2 -50 25 0 20 -5 25
-25 25 -23 0 -25 3 -25 50 0 47 -2 50 -25 50 -24 0 -25 2 -25 75 0 73 1 75 25
75 l25 0 0 100 0 100 25 0 c24 0 25 2 25 75 0 73 -1 75 -25 75 -23 0 -25 3
-25 50 0 47 -2 50 -25 50 -20 0 -25 5 -25 25 0 20 -5 25 -25 25 -20 0 -25 5
-25 25 0 23 3 25 50 25 47 0 50 -2 50 -25z m2250 -150 c0 -20 -5 -25 -25 -25
-20 0 -25 5 -25 25 0 20 5 25 25 25 20 0 25 -5 25 -25z m0 -125 c0 -47 -2 -50
-25 -50 -23 0 -25 3 -25 50 0 47 2 50 25 50 23 0 25 -3 25 -50z m-150 -125 c0
-20 -5 -25 -25 -25 -20 0 -25 5 -25 25 0 20 5 25 25 25 20 0 25 -5 25 -25z
m150 -150 c0 -20 5 -25 25 -25 20 0 25 -5 25 -25 0 -20 5 -25 25 -25 20 0 25
5 25 25 0 20 5 25 25 25 20 0 25 -5 25 -25 0 -20 -5 -25 -25 -25 -20 0 -25 -5
-25 -25 0 -20 -5 -25 -25 -25 -20 0 -25 5 -25 25 0 20 -5 25 -25 25 -20 0 -25
5 -25 25 0 20 -5 25 -25 25 -20 0 -25 -5 -25 -25 0 -20 -5 -25 -25 -25 -20 0
-25 -5 -25 -25 0 -20 -5 -25 -25 -25 -20 0 -25 5 -25 25 0 20 5 25 25 25 20 0
25 5 25 25 0 20 5 25 25 25 20 0 25 5 25 25 0 20 5 25 25 25 20 0 25 -5 25
-25z m-150 -225 c0 -47 -2 -50 -25 -50 -20 0 -25 -5 -25 -25 0 -20 -5 -25 -25
-25 -20 0 -25 5 -25 25 0 20 5 25 25 25 23 0 25 3 25 50 0 47 2 50 25 50 23 0
25 -3 25 -50z m-150 -225 c0 -20 -5 -25 -25 -25 -20 0 -25 5 -25 25 0 20 5 25
25 25 20 0 25 -5 25 -25z m-350 -100 c0 -20 -5 -25 -25 -25 -20 0 -25 5 -25
25 0 20 5 25 25 25 20 0 25 -5 25 -25z"/>
<path d="M1350 2475 c0 -20 5 -25 25 -25 20 0 25 5 25 25 0 20 -5 25 -25 25
-20 0 -25 -5 -25 -25z"/>
<path d="M1650 2475 c0 -20 -5 -25 -25 -25 -23 0 -25 -3 -25 -50 0 -47 2 -50
25 -50 20 0 25 -5 25 -25 0 -23 3 -25 50 -25 47 0 50 2 50 25 0 20 5 25 25 25
23 0 25 3 25 50 0 47 2 50 25 50 24 0 25 -2 25 -75 0 -73 -1 -75 -25 -75 -20
0 -25 -5 -25 -25 0 -20 5 -25 25 -25 20 0 25 5 25 25 0 20 5 25 25 25 24 0 25
2 25 75 0 73 -1 75 -25 75 -20 0 -25 5 -25 25 l0 25 -100 0 -100 0 0 -25z
m100 -50 c0 -20 -5 -25 -25 -25 -20 0 -25 5 -25 25 0 20 5 25 25 25 20 0 25
-5 25 -25z"/>
<path d="M2350 2475 c0 -23 3 -25 50 -25 47 0 50 -2 50 -25 0 -23 3 -25 50
-25 47 0 50 -2 50 -25 0 -20 5 -25 25 -25 20 0 25 5 25 25 0 20 -5 25 -25 25
-20 0 -25 5 -25 25 0 23 -3 25 -50 25 -47 0 -50 2 -50 25 0 23 -3 25 -50 25
-47 0 -50 -2 -50 -25z"/>
<path d="M2250 2325 c0 -20 5 -25 25 -25 20 0 25 5 25 25 0 20 -5 25 -25 25
-20 0 -25 -5 -25 -25z"/>
<path d="M2300 2125 c0 -20 5 -25 25 -25 20 0 25 -5 25 -25 0 -20 5 -25 25
-25 23 0 25 3 25 50 l0 50 -50 0 c-47 0 -50 -2 -50 -25z"/>
<path d="M1900 1725 c0 -20 5 -25 25 -25 20 0 25 -5 25 -25 0 -20 5 -25 25
-25 20 0 25 -5 25 -25 0 -20 5 -25 25 -25 20 0 25 -5 25 -25 0 -20 5 -25 25
-25 20 0 25 5 25 25 0 20 -5 25 -25 25 -20 0 -25 5 -25 25 0 20 -5 25 -25 25
-20 0 -25 5 -25 25 0 20 -5 25 -25 25 -20 0 -25 5 -25 25 0 20 -5 25 -25 25
-20 0 -25 -5 -25 -25z"/>
<path d="M2550 1725 c0 -20 5 -25 25 -25 20 0 25 5 25 25 0 20 -5 25 -25 25
-20 0 -25 -5 -25 -25z"/>
<path d="M1600 1400 c0 -47 -2 -50 -25 -50 -20 0 -25 -5 -25 -25 0 -20 5 -25
25 -25 20 0 25 5 25 25 0 20 5 25 25 25 23 0 25 3 25 50 0 47 -2 50 -25 50
-23 0 -25 -3 -25 -50z"/>
<path d="M1550 1225 c0 -20 5 -25 25 -25 20 0 25 -5 25 -25 0 -20 5 -25 25
-25 l25 0 0 -150 0 -150 25 0 c23 0 25 -3 25 -50 0 -47 -2 -50 -25 -50 l-25 0
0 -125 0 -125 25 0 c24 0 25 2 25 75 0 73 1 75 25 75 23 0 25 3 25 50 0 47 2
50 25 50 23 0 25 3 25 50 0 47 2 50 25 50 20 0 25 5 25 25 0 20 5 25 25 25 20
0 25 5 25 25 0 20 5 25 25 25 20 0 25 -5 25 -25 0 -20 5 -25 25 -25 20 0 25 5
25 25 0 20 5 25 25 25 20 0 25 5 25 25 0 24 -2 25 -75 25 -73 0 -75 -1 -75
-25 0 -20 -5 -25 -25 -25 -23 0 -25 3 -25 50 0 47 -2 50 -25 50 -23 0 -25 3
-25 50 0 47 -2 50 -25 50 -20 0 -25 -5 -25 -25 0 -20 -5 -25 -25 -25 -20 0
-25 5 -25 25 0 20 -5 25 -25 25 -20 0 -25 5 -25 25 0 20 -5 25 -25 25 -20 0
-25 5 -25 25 0 20 -5 25 -25 25 -20 0 -25 -5 -25 -25z"/>
<path d="M2050 775 c0 -23 3 -25 50 -25 47 0 50 2 50 25 0 23 -3 25 -50 25
-47 0 -50 -2 -50 -25z"/>
</g>
</svg>
